<svg xmlns="http://www.w3.org/2000/svg" version="1.1" xmlns:xlink="http://www.w3.org/1999/xlink" xmlns:svgjs="http://svgjs.dev/svgjs" viewBox="0 0 800 800"><defs><linearGradient x1="50%" y1="0%" x2="50%" y2="100%" id="ccchaos-grad"><stop stop-color="hsl(162, 100%, 58%)" stop-opacity="1" offset="0%"></stop><stop stop-color="hsl(270, 73%, 53%)" stop-opacity="1" offset="100%"></stop></linearGradient></defs><g stroke-width="2" stroke="url(#ccchaos-grad)" fill="none" stroke-linecap="round"><path d="M379.23 102.87C388.61 106.81 397.96 112.13 407.26 118.17 416.57 123.91 425.86 129.17 435.11 133.52 444.39 136.27 453.68 137.81 462.95 138.27 472.3 137.44 481.69 136.24 491.11 135.13 500.65 134.07 510.26 134.02 519.95 135.29 529.78 137.69 539.7 141.79 549.7 147.53 559.85 154.51 570.07 162.83 580.3 172.2 590.62 182.14 600.9 192.56 611.06 203.13 621.19 213.5 631.07 223.62 640.6 233.33 649.9 242.4 658.66 250.97 666.77 259.07 674.4 266.48 681.19 273.57 687 280.44 692.12 286.81 696.12 293.19 698.91 299.69 700.91 305.91 701.66 312.43 701.15 319.31 699.93 326.07 697.57 333.29 694.14 340.99 690.31 348.65 685.68 356.83 680.41 365.53 675.23 374.21 669.76 383.43 664.2 393.2 659.27 402.98 654.68 413.09 650.54 423.53 647.35 434.01 644.72 444.84 642.65 456.01 641.54 467.24 640.91 478.82 640.67 490.68 641.17 502.55 641.84 514.62 642.55 526.76 643.66 538.68 644.56 550.42 645.1 561.72 645.71 572.39 645.75 582.21 645.14 590.87 643.53 601.41 635.76 612.16 629.53 612.28 624.72 611.12 619.13 609.04 612.81 606.56 606.16 604.93 598.86 604.17 590.99 604.94 582.88 608.22 574.29 613.93 565.31 622.24 556.18 633.22 546.73 646.21 537.03 660.44 527.26 675.07 517.31 688.81 507.23 700.41 497.12 709.07 486.92 713.71 476.68 713.78 466.43 709.89 456.16 702.04 445.89 691.25 435.63 679.59 425.38 668.01 415.15 658.16 404.92 651.99 394.94 649.83 385.23 651.74 375.51 657.75 366.02 666.35 356.79 676.16 347.51 686.4 338.46 694.99 329.64 700.78 320.75 703.51 312.06 702.15 303.58 696.8 295.01 688.16 286.62 676.57 278.42 662.99 270.11 648.47 261.96 633.83 253.99 619.94 245.91 607.5 237.99 596.87 230.25 588.23 222.4 581.82 214.74 577.24 207.28 574.1 199.74 572.52 192.43 571.56 185.38 570.77 178.3 570.39 171.51 569.43 165.05 567.63 158.62 565.44 152.56 562.08 146.92 557.55 141.38 552.38 136.29 546.09 131.7 538.8 127.26 530.99 123.36 522.41 120.02 513.23 116.88 503.75 114.31 493.88 112.37 483.77 110.62 473.55 109.49 463.23 108.99 452.9 108.67 442.55 108.96 432.25 109.89 422.05 110.94 411.85 112.55 401.98 114.68 392.42 116.86 382.83 119.5 373.48 122.56 364.33 125.59 355.07 129 345.89 132.74 336.75 136.37 327.38 140.31 317.91 144.51 308.29 148.55 298.34 152.85 288.15 157.37 277.69 161.7 266.94 166.26 255.95 171.03 244.83 175.62 233.64 180.43 222.53 185.46 211.71 190.34 201.29 195.47 191.54 200.84 182.73 206.09 174.83 211.62 168.2 217.43 162.99 223.16 158.87 229.2 156.12 235.52 154.66 241.82 153.75 248.43 153.55 255.34 153.71 262.24 153.32 269.45 152.49 276.95 150.89 284.45 147.83 292.25 143.66 300.31 138.43 308.38 131.98 316.71 125.05 325.27 118.17 333.84 111.52 342.64 106.05 351.64 102.3 360.63 100.22 369.83 100.41 379.22 102.87" stroke-dasharray="3 6" transform="rotate(0, 400, 400)" opacity="0.89"></path><path d="M381.23 113.55C390.29 117.42 399.36 122.64 408.41 128.59 417.48 134.31 426.55 139.67 435.61 144.23 444.72 147.33 453.84 149.27 462.98 150.15 472.19 149.71 481.45 148.75 490.76 147.69 500.16 146.45 509.64 145.96 519.18 146.53 528.84 148.01 538.57 151.02 548.34 155.57 558.21 161.33 568.11 168.5 577.98 176.84 587.89 185.94 597.71 195.76 607.35 205.99 616.9 216.3 626.17 226.6 635.03 236.7 643.63 246.39 651.69 255.7 659.06 264.6 665.98 272.92 672.06 280.88 677.2 288.56 681.7 295.73 685.14 302.78 687.45 309.81 689.06 316.51 689.52 323.35 688.81 330.43 687.5 337.33 685.15 344.57 681.82 352.2 678.17 359.76 673.79 367.78 668.81 376.28 663.94 384.76 658.79 393.75 653.54 403.29 648.86 412.83 644.46 422.71 640.45 432.9 637.29 443.11 634.61 453.64 632.43 464.43 631.12 475.22 630.23 486.24 629.7 497.39 629.87 508.44 630.2 519.48 630.59 530.34 631.4 540.86 632.04 550.94 632.39 560.34 632.85 572.87 630.88 590.49 628.08 594.83 624.12 596.3 611.92 593.25 603.78 591.02 597.82 590.83 591.23 591.86 584.08 594.61 576.7 599.79 568.83 607.22 560.55 616.89 552.11 628.69 543.33 641.92 534.27 655.81 525.12 669.55 515.76 682 506.22 692.07 496.66 699.21 486.97 702.5 477.19 701.58 467.41 697.14 457.56 689.23 447.68 678.78 437.81 667.7 427.91 656.79 418.01 647.48 408.11 641.54 398.43 639.23 388.99 640.62 379.53 645.84 370.28 653.54 361.26 662.58 352.2 672.32 343.34 680.87 334.68 687.15 325.97 690.91 317.44 691.06 309.09 687.52 300.67 680.85 292.42 671.15 284.33 659.18 276.16 645.84 268.13 631.83 260.28 617.96 252.33 604.92 244.53 593.16 236.92 582.99 229.22 574.71 221.7 568.14 214.38 563.09 207.02 559.67 199.87 557.19 192.99 555.26 186.1 554.1 179.49 552.81 173.21 551.11 166.98 549.39 161.12 546.85 155.67 543.39 150.32 539.54 145.42 534.69 141 528.89 136.74 522.68 133 515.63 129.82 507.88 126.82 499.85 124.39 491.28 122.56 482.28 120.93 473.16 119.89 463.76 119.47 454.15 119.23 444.52 119.58 434.76 120.55 424.91 121.64 415.06 123.28 405.36 125.41 395.81 127.59 386.23 130.23 376.74 133.27 367.32 136.28 357.79 139.65 348.24 143.35 338.63 146.94 328.83 150.83 318.89 154.98 308.76 158.97 298.43 163.21 287.89 167.66 277.18 171.93 266.35 176.42 255.45 181.1 244.59 185.61 233.89 190.33 223.49 195.26 213.59 200.03 204.27 205.03 195.78 210.25 188.35 215.36 181.85 220.71 176.6 226.32 172.69 231.85 169.68 237.65 167.85 243.73 167.02 249.76 166.47 256.08 166.34 262.69 166.31 269.27 165.52 276.15 164.16 283.3 161.94 290.45 158.3 297.87 153.63 305.57 148.02 313.25 141.38 321.2 134.44 329.4 127.69 337.58 121.29 346.01 116.11 354.65 112.64 363.29 110.77 372.15 111.08 381.22 113.55" stroke-dasharray="4 1" transform="rotate(4.04, 400, 400)" opacity="0.72"></path><path d="M383.91 124.23C392.67 128.03 401.46 133.12 410.26 138.97 419.07 144.66 427.92 150.08 436.78 154.83 445.68 158.25 454.61 160.59 463.58 161.9 472.62 161.88 481.71 161.24 490.84 160.34 500.06 159.06 509.34 158.27 518.66 158.31 528.08 159 537.54 161.02 547 164.45 556.54 168.98 566.05 174.91 575.49 182.08 584.93 190.13 594.22 199.07 603.29 208.64 612.24 218.53 620.86 228.65 629.05 238.8 636.96 248.77 644.3 258.53 650.97 268 657.19 277.05 662.6 285.77 667.1 294.2 671.03 302.19 673.96 309.98 675.84 317.65 677.1 324.99 677.3 332.34 676.44 339.79 675.07 347.05 672.74 354.52 669.53 362.27 666.06 369.93 661.92 377.94 657.24 386.35 652.67 394.73 647.84 403.55 642.88 412.84 638.45 422.13 634.24 431.68 630.36 441.46 627.25 451.25 624.54 461.24 622.26 471.37 620.78 481.46 619.66 491.6 618.86 501.7 618.72 511.61 618.74 521.31 618.83 530.62 619.33 539.52 619.7 547.78 619.85 555.22 615.7 575.22 601.45 577.35 594.18 577.03 588.85 578.5 582.92 581.37 576.44 586.02 569.75 592.88 562.57 601.72 554.96 612.39 547.2 624.62 539.08 637.75 530.65 650.99 522.14 663.64 513.37 674.7 504.4 683.25 495.39 688.92 486.22 690.98 476.93 689.19 467.63 684.32 458.23 676.41 448.77 666.34 439.3 655.85 429.78 645.59 420.23 636.81 410.67 631.09 401.31 628.65 392.14 629.58 382.96 634.03 373.97 640.87 365.17 649.12 356.34 658.27 347.68 666.64 339.21 673.23 330.69 677.81 322.33 679.25 314.13 677.37 305.88 672.59 297.77 664.8 289.82 654.59 281.79 642.73 273.91 629.73 266.19 616.36 258.4 603.24 250.75 590.87 243.28 579.63 235.75 569.86 228.4 561.57 221.25 554.7 214.07 549.4 207.12 545.21 200.42 541.82 193.73 539.4 187.33 537.25 181.26 535.05 175.24 533.15 169.59 530.78 164.34 527.79 159.2 524.68 154.5 520.76 150.27 516.02 146.2 511.02 142.63 505.21 139.61 498.67 136.76 491.91 134.47 484.52 132.77 476.58 131.25 468.53 130.31 460.04 129.97 451.19 129.8 442.31 130.21 433.13 131.21 423.69 132.33 414.25 133.98 404.79 136.12 395.32 138.3 385.84 140.92 376.3 143.93 366.72 146.91 357.06 150.25 347.3 153.89 337.41 157.45 327.42 161.29 317.26 165.37 306.96 169.32 296.57 173.49 286.06 177.87 275.5 182.09 264.99 186.51 254.57 191.12 244.39 195.56 234.54 200.19 225.16 205.02 216.47 209.7 208.44 214.59 201.34 219.68 195.34 224.65 190.2 229.86 186.24 235.3 183.47 240.64 181.37 246.24 180.21 252.1 179.79 257.89 179.36 263.96 179.1 270.29 178.71 276.59 177.43 283.17 175.46 290.01 172.62 296.83 168.42 303.93 163.3 311.28 157.39 318.62 150.64 326.22 143.74 334.06 137.17 341.9 131.05 349.98 126.18 358.29 122.99 366.6 121.34 375.13 121.76 383.9 124.23" stroke-dasharray="11 2" transform="rotate(8.08, 400, 400)" opacity="0.62"></path><path d="M387.16 134.91C395.62 138.63 404.13 143.59 412.68 149.31 421.23 154.94 429.84 160.41 438.47 165.31 447.14 169.01 455.86 171.74 464.62 173.48 473.43 173.92 482.3 173.66 491.21 173.02 500.18 171.83 509.2 170.9 518.25 170.56 527.36 170.63 536.48 171.81 545.58 174.2 554.71 177.56 563.78 182.25 572.73 188.18 581.65 195.03 590.38 202.88 598.84 211.52 607.16 220.67 615.12 230.26 622.62 240.09 629.84 249.97 636.49 259.83 642.47 269.55 648.02 279.04 652.8 288.29 656.73 297.29 660.12 305.95 662.59 314.4 664.08 322.68 665.03 330.67 665.02 338.58 664.04 346.48 662.62 354.19 660.34 362 657.27 369.96 653.98 377.82 650.08 385.92 645.69 394.29 641.42 402.62 636.88 411.29 632.22 420.28 628.03 429.28 624.01 438.42 620.27 447.65 617.21 456.87 614.5 466.15 612.14 475.4 610.51 484.58 609.2 493.65 608.16 502.48 607.73 511.09 607.46 519.31 607.25 526.98 607.51 537.5 607.5 553.45 606.77 558.4 602.86 562.13 590.57 562.93 584.07 564.91 579.31 568.11 573.98 572.77 568.12 579.1 562.07 587.36 555.53 597.25 548.57 608.51 541.46 620.82 533.98 633.51 526.18 645.86 518.28 657.28 510.11 666.88 501.71 673.93 493.27 678.22 484.63 679.16 475.84 676.62 467.03 671.42 458.1 663.58 449.06 653.92 440.03 644.02 430.91 634.39 421.72 626.13 412.53 620.65 403.5 618.1 394.63 618.6 385.75 622.34 377.03 628.34 368.47 635.77 359.88 644.29 351.45 652.36 343.17 659.07 334.86 664.26 326.69 666.77 318.67 666.36 310.6 663.34 302.66 657.43 294.86 649.06 287.02 638.86 279.3 627.2 271.74 614.73 264.12 602.03 256.65 589.56 249.35 577.77 242.02 566.98 234.85 557.35 227.9 548.94 220.93 541.91 214.18 536 207.7 531.01 201.23 527.09 195.05 523.68 189.2 520.53 183.42 517.92 177.99 515.16 172.95 512.08 165.79 507.34 153.95 494.64 149.4 486.51 146.72 480.71 144.57 474.27 142.99 467.23 141.58 460.1 140.74 452.45 140.48 444.32 140.38 436.15 140.84 427.57 141.87 418.59 143.02 409.61 144.68 400.47 146.81 391.2 148.98 381.93 151.57 372.51 154.54 362.95 157.49 353.37 160.78 343.63 164.37 333.76 167.88 323.85 171.66 313.82 175.69 303.7 179.58 293.61 183.7 283.51 188.01 273.5 192.17 263.69 196.53 254.12 201.06 244.95 205.43 236.23 209.99 228.11 214.74 220.78 219.33 214.14 224.12 208.45 229.1 203.82 236.49 198.5 252.21 193.42 260.58 192.78 266.17 192.26 272.01 191.7 278.1 190.82 284.15 188.96 290.45 186.36 297.01 182.9 303.54 178.19 310.34 172.68 317.38 166.54 324.4 159.75 331.68 152.96 339.21 146.61 346.72 140.8 354.47 136.26 362.47 133.35 370.46 131.92 378.68 132.44 387.15 134.91" stroke-dasharray="2 3" transform="rotate(12.12, 400, 400)" opacity="0.89"></path><path d="M390.87 145.59C399.04 149.22 407.27 154.04 415.55 159.61 423.83 165.17 432.18 170.64 440.56 175.66 448.97 179.62 457.44 182.71 465.95 184.87 474.5 185.78 483.1 185.96 491.72 185.65 500.4 184.66 509.1 183.75 517.81 183.19 526.55 182.82 535.28 183.32 543.95 184.84 552.63 187.13 561.2 190.65 569.62 195.33 577.98 200.9 586.11 207.53 593.95 215.05 601.63 223.18 608.92 231.93 615.74 241.11 622.28 250.52 628.26 260.11 633.58 269.73 638.51 279.29 642.7 288.74 646.08 298.03 648.99 307.12 651.04 316.02 652.2 324.75 652.88 333.25 652.68 341.64 651.62 349.93 650.18 358.07 647.97 366.21 645.03 374.37 641.93 382.45 638.28 390.64 634.17 398.97 630.18 407.27 625.94 415.75 621.56 424.4 617.6 433.06 613.79 441.7 610.18 450.29 607.19 458.84 604.48 467.3 602.07 475.57 600.32 483.75 598.83 491.65 597.58 499.17 596.9 506.47 596.35 513.24 595.87 519.38 594.18 539.34 588 546.86 584.1 547.75 581.15 549.29 577.62 551.57 573.55 554.88 569.29 559.73 564.49 565.98 559.19 573.72 553.73 583.02 547.79 593.56 541.43 605.03 534.94 617.06 528.07 629.04 520.87 640.3 513.58 650.38 505.99 658.51 498.15 664.1 490.27 667.12 482.17 667.06 473.89 663.9 465.58 658.46 457.12 650.76 448.54 641.54 439.94 632.22 431.24 623.21 422.43 615.45 413.63 610.2 404.95 607.58 396.39 607.68 387.83 610.76 379.4 615.95 371.1 622.58 362.78 630.4 354.59 638.06 346.54 644.75 338.46 650.33 330.5 653.7 322.67 654.54 314.81 653.1 307.06 648.98 299.45 642.44 291.81 634.03 284.28 623.93 276.91 612.69 269.49 600.84 262.23 588.77 255.13 576.93 248.01 565.64 241.06 555.15 234.32 545.6 227.59 537.14 221.07 529.7 214.82 523.19 208.6 517.69 202.66 512.87 197.05 508.51 191.51 504.8 186.32 501.22 181.52 497.59 174.7 492.41 163.49 480.17 159.2 472.74 156.68 467.54 154.68 461.75 153.22 455.38 151.94 448.96 151.19 441.98 151 434.48 150.97 426.95 151.47 418.93 152.53 410.45 153.7 401.96 155.36 393.23 157.47 384.29 159.62 375.37 162.18 366.24 165.11 356.94 168.02 347.66 171.26 338.22 174.79 328.67 178.24 319.16 181.96 309.58 185.92 300.01 189.75 290.57 193.8 281.24 198.05 272.12 202.15 263.31 206.44 254.86 210.9 246.94 215.21 239.51 219.7 232.77 224.36 226.85 231.22 219.38 245.68 209.94 253.31 207.74 260.99 206.43 277.34 204.48 286.04 202.5 291.86 200.02 297.92 196.79 304.23 192.75 310.5 187.6 317.02 181.78 323.78 175.49 330.51 168.73 337.5 162.11 344.72 156.02 351.93 150.56 359.39 146.35 367.08 143.73 374.76 142.51 382.69 143.14 390.86 145.58" stroke-dasharray="7 10" transform="rotate(16.16, 400, 400)" opacity="0.13"></path><path d="M394.91 156.27C402.79 159.8 410.73 164.47 418.72 169.88 426.72 175.34 434.78 180.78 442.89 185.88 451.01 190.06 459.19 193.48 467.41 196.05 475.65 197.43 483.93 198.08 492.23 198.17 500.56 197.5 508.9 196.73 517.21 196.12 525.54 195.49 533.82 195.5 542.01 196.31 550.18 197.7 558.23 200.15 566.08 203.67 573.85 207.98 581.37 213.33 588.57 219.6 595.59 226.55 602.23 234.22 608.39 242.46 614.27 251.08 619.6 260.04 624.31 269.18 628.65 278.44 632.29 287.73 635.18 296.97 637.64 306.15 639.33 315.2 640.19 324.12 640.64 332.91 640.31 341.57 639.18 350.1 637.74 358.52 635.61 366.87 632.83 375.15 629.92 383.38 626.51 391.59 622.67 399.81 618.96 408.02 615 416.26 610.9 424.53 607.18 432.79 603.55 440.89 600.1 448.77 597.18 456.63 594.49 464.24 592.05 471.52 590.19 478.71 588.56 485.5 587.13 491.8 585.82 500.69 584.14 514.89 583.43 519.99 578.74 529.46 567.96 540.14 562.69 546.98 558.86 553.3 554.53 560.86 549.73 569.64 544.79 579.6 539.4 590.4 533.6 601.7 527.69 613.15 521.39 624.18 514.76 634.21 508.05 642.88 501.03 649.56 493.74 653.78 486.41 655.63 478.84 654.7 471.07 651.04 463.27 645.45 455.29 637.95 447.16 629.18 439.02 620.45 430.74 612.05 422.34 604.77 413.94 599.76 405.63 597.08 397.41 596.84 389.19 599.29 381.06 603.72 373.05 609.54 365.03 616.63 357.1 623.79 349.3 630.31 341.47 636.09 333.75 640.09 326.14 641.96 318.51 641.9 310.99 639.42 303.6 634.64 296.18 628.04 288.88 619.65 281.72 609.89 274.54 599.24 267.5 588 260.63 576.59 253.75 565.33 247.05 554.48 240.55 544.26 234.07 534.81 227.81 526.18 221.81 518.36 215.86 511.44 210.18 505.22 204.82 499.57 199.55 494.6 194.61 489.95 190.05 485.45 183.6 479.26 173.02 466.25 169.01 458.95 166.66 453.97 164.81 448.51 163.48 442.55 162.31 436.57 161.66 430.08 161.54 423.09 161.57 416.08 162.12 408.57 163.19 400.59 164.37 392.61 166.03 384.36 168.11 375.89 170.24 367.43 172.76 358.78 175.63 349.97 178.49 341.21 181.67 332.32 185.13 323.39 188.52 314.56 192.18 305.73 196.05 297.02 199.83 288.5 203.81 280.2 207.98 272.23 212.02 264.6 216.25 257.43 220.63 250.86 224.88 244.77 229.3 239.39 233.88 234.81 240.63 229.13 254.8 222.33 262.25 220.79 269.74 219.57 285.62 216.58 294.03 213.68 299.65 210.57 305.5 206.74 311.58 202.17 317.61 196.66 323.88 190.61 330.38 184.26 336.85 177.6 343.56 171.2 350.51 165.43 357.43 160.32 364.6 156.46 372 154.12 379.39 153.11 387.03 153.83 394.9 156.26" stroke-dasharray="6 3" transform="rotate(20.200000000000003, 400, 400)" opacity="0.87"></path><path d="M399.14 166.95C406.71 170.37 414.36 174.88 422.05 180.12 429.75 185.45 437.5 190.84 445.3 195.98 453.11 200.34 460.97 204.04 468.85 206.99 476.75 208.83 484.67 209.96 492.59 210.5 500.53 210.22 508.45 209.72 516.32 209.21 524.19 208.5 531.99 208.21 539.66 208.52 547.3 209.2 554.78 210.75 562.05 213.23 569.21 216.37 576.11 220.48 582.67 225.49 589.05 231.16 595.04 237.61 600.56 244.71 605.82 252.28 610.54 260.31 614.66 268.67 618.46 277.27 621.6 286.04 624.04 294.88 626.12 303.77 627.47 312.65 628.08 321.44 628.35 330.21 627.9 338.87 626.74 347.4 625.33 355.88 623.28 364.25 620.66 372.49 617.94 380.71 614.76 388.83 611.2 396.85 607.75 404.87 604.08 412.8 600.24 420.63 596.75 428.46 593.31 435.99 590.01 443.19 587.18 450.37 584.52 457.18 582.07 463.57 579.26 472.8 575.17 488.52 573.71 494.8 570.02 508.97 563.62 520.28 560.29 525.1 557.84 529.53 554.94 534.84 551.59 541.15 548.12 548.64 544.2 557.15 539.84 566.57 535.37 576.79 530.47 587.49 525.18 598.29 519.79 608.89 514.03 618.79 507.94 627.48 501.77 634.74 495.29 640.01 488.53 642.96 481.74 643.77 474.68 642.1 467.41 638.05 460.12 632.4 452.62 625.15 444.95 616.87 437.27 608.72 429.43 600.9 421.45 594.09 413.47 589.32 405.53 586.61 397.67 586.05 389.81 587.94 382.02 591.63 374.31 596.68 366.6 603.01 358.97 609.6 351.44 615.82 343.9 621.63 336.44 626.04 329.09 628.71 321.72 629.81 314.46 628.76 307.31 625.63 300.14 620.79 293.09 614.14 286.18 606.01 279.26 596.82 272.48 586.76 265.87 576.2 259.26 565.45 252.83 554.76 246.6 544.36 240.4 534.41 234.42 525.03 228.69 516.29 223.02 508.24 217.62 500.83 212.53 494 207.54 487.8 202.87 482.02 198.56 476.53 194.38 471.47 190.59 466.51 187.21 461.53 182.58 454.33 175.81 438.92 173.75 430.42 172.7 424.64 172.14 418.44 172.09 411.82 172.18 405.19 172.76 398.13 173.85 390.64 175.04 383.15 176.68 375.43 178.73 367.53 180.83 359.65 183.3 351.61 186.1 343.48 188.91 335.41 192.02 327.29 195.4 319.21 198.72 311.25 202.3 303.4 206.1 295.75 209.8 288.33 213.71 281.21 217.8 274.5 221.77 268.12 225.92 262.27 230.23 257.02 236.58 250.12 249.89 240.37 256.84 237.46 263.79 235.37 278.4 232.59 286.08 231.01 291.19 229.24 296.49 227.03 301.99 224.25 307.43 220.54 313.09 216.16 318.95 211.16 324.77 205.37 330.81 199.2 337.07 192.86 343.3 186.38 349.75 180.26 356.43 174.83 363.09 170.1 369.98 166.59 377.1 164.54 384.2 163.73 391.55 164.54 399.13 166.94" stroke-dasharray="6 3" transform="rotate(24.24, 400, 400)" opacity="0.78"></path><path d="M403.39 177.62C410.66 180.94 417.99 185.28 425.37 190.33 432.75 195.5 440.17 200.81 447.63 205.95 455.1 210.44 462.6 214.38 470.11 217.67 477.63 219.96 485.16 221.57 492.66 222.58 500.16 222.76 507.63 222.62 515.03 222.34 522.4 221.72 529.68 221.33 536.82 221.34 543.89 221.52 550.79 222.38 557.46 224 564.02 226.12 570.29 229.1 576.23 232.92 581.99 237.31 587.35 242.5 592.25 248.37 596.92 254.72 601.07 261.63 604.66 268.97 607.95 276.62 610.64 284.56 612.69 292.68 614.42 300.96 615.49 309.31 615.89 317.67 616 326.08 615.47 334.44 614.3 342.7 612.92 350.97 610.99 359.13 608.53 367.14 606 375.15 603.05 383.02 599.75 390.73 596.57 398.45 593.15 406 589.58 413.36 586.31 420.72 583.07 427.7 579.92 434.27 577.18 440.83 574.58 446.96 572.14 452.63 569.22 460.82 564.69 474.57 562.92 480.11 560.41 489.12 556.11 500.64 553.97 504.95 551.54 510.64 544.76 526.49 540.34 537.16 537.17 545.47 533.6 554.54 529.62 564.2 525.55 574.3 521.09 584.54 516.25 594.56 511.34 604.11 506.07 612.75 500.47 620.06 494.81 625.92 488.84 629.87 482.59 631.66 476.31 631.57 469.76 629.29 462.98 624.96 456.18 619.33 449.16 612.37 441.95 604.58 434.74 597.01 427.34 589.76 419.79 583.41 412.23 578.88 404.7 576.16 397.22 575.33 389.73 576.7 382.3 579.7 374.92 583.99 367.55 589.57 360.24 595.52 353.01 601.33 345.77 607.01 338.61 611.64 331.54 614.88 324.47 616.89 317.49 617.07 310.62 615.39 303.74 612.19 296.97 607.26 290.34 600.81 283.71 593.23 277.21 584.59 270.88 575.22 264.57 565.4 258.43 555.31 252.5 545.23 246.6 535.28 240.92 525.64 235.48 516.42 230.12 507.67 225.01 499.42 220.21 491.68 215.5 484.45 211.11 477.65 207.07 471.22 203.15 465.19 199.6 459.39 196.45 453.71 193.44 448.28 190.85 442.84 188.7 437.32 186.69 431.92 185.14 426.34 184.05 420.52 183.12 414.75 182.65 408.68 182.66 402.31 182.8 395.94 183.42 389.24 184.51 382.22 185.7 375.2 187.32 368.03 189.33 360.75 191.38 353.5 193.8 346.18 196.54 338.85 199.27 331.58 202.3 324.36 205.6 317.26 208.85 310.29 212.34 303.51 216.04 297.01 219.67 290.73 223.49 284.82 227.49 279.36 233.43 271.87 245.93 260.15 252.47 256.03 258.99 252.81 272.62 248.71 279.75 247.24 286.9 245.23 301.94 239.02 309.86 234.18 315.13 229.91 320.61 225.07 326.27 219.73 331.89 213.76 337.72 207.56 343.75 201.33 349.74 195.08 355.96 189.29 362.38 184.24 368.78 179.9 375.4 176.75 382.23 174.98 389.06 174.37 396.11 175.26 403.38 177.62" stroke-dasharray="9 0" transform="rotate(28.28, 400, 400)" opacity="0.54"></path><path d="M407.52 188.3C414.48 191.5 421.49 195.66 428.52 200.5 435.56 205.51 442.64 210.69 449.73 215.8 456.83 220.37 463.95 224.51 471.06 228.09 478.17 230.78 485.26 232.85 492.31 234.34 499.36 235.02 506.34 235.31 513.23 235.37 520.09 234.98 526.83 234.67 533.4 234.57 539.91 234.48 546.23 234.87 552.29 235.85 558.25 237.16 563.91 239.19 569.24 241.95 574.39 245.18 579.16 249.15 583.49 253.79 587.6 258.89 591.23 264.57 594.32 270.75 597.16 277.27 599.45 284.16 601.14 291.33 602.57 298.71 603.4 306.27 603.63 313.91 603.62 321.67 603.03 329.45 601.87 337.19 600.55 344.98 598.73 352.69 596.43 360.27 594.09 367.88 591.38 375.34 588.33 382.62 585.4 389.92 582.24 397.02 578.92 403.89 575.87 410.77 572.82 417.24 569.82 423.29 565.92 432.13 559.25 447.59 556.48 454.19 552.56 465.58 547.7 480.1 545.99 484.78 544.26 490.22 539.63 503.73 536.58 512.38 534.42 519.14 531.91 526.58 529.04 534.68 526.12 543.42 522.83 552.63 519.17 562.14 515.46 571.78 511.37 581.27 506.95 590.29 502.46 598.65 497.63 605.95 492.49 611.88 484.55 617.77 467.19 617.67 457.85 611.79 451.53 606.26 444.98 599.63 438.24 592.35 431.48 585.33 424.53 578.63 417.42 572.73 410.3 568.45 403.18 565.73 396.09 564.67 389 565.57 381.93 567.93 374.92 571.49 367.91 576.31 360.94 581.6 354.04 586.92 347.14 592.33 340.3 596.99 333.55 600.57 326.8 603.26 320.13 604.42 313.56 603.99 307 602.25 300.55 598.91 294.22 594.11 287.91 588.19 281.73 581.13 275.71 573.16 269.72 564.58 263.9 555.49 258.28 546.14 252.7 536.68 247.34 527.27 242.22 518.05 237.16 509.05 232.37 500.4 227.87 492.12 223.46 484.21 219.35 476.68 215.59 469.5 211.94 462.67 208.64 456.1 205.73 449.75 202.94 443.64 200.55 437.64 198.58 431.69 196.75 425.87 195.34 420.01 194.38 414.06 193.55 408.17 193.17 402.12 193.24 395.91 193.44 389.71 194.08 383.31 195.17 376.71 196.36 370.11 197.95 363.48 199.91 356.85 201.91 350.24 204.26 343.66 206.92 337.17 209.58 330.74 212.52 324.44 215.72 318.34 218.88 312.36 222.28 306.65 225.88 301.27 231.28 293.66 242.85 280.95 248.97 276 255.09 271.84 267.89 266 274.56 263.99 281.24 261.94 295.2 257.23 302.49 253.91 307.34 250.89 312.35 247.4 317.53 243.4 322.65 238.67 327.95 233.47 333.42 227.9 338.86 221.87 344.48 215.73 350.29 209.69 356.06 203.75 362.04 198.33 368.21 193.68 374.35 189.74 380.71 186.94 387.26 185.45 393.8 185.02 400.56 185.98 407.51 188.3" stroke-dasharray="7 9" transform="rotate(32.32, 400, 400)" opacity="0.14"></path><path d="M411.39 198.98C418.02 202.05 424.68 206.02 431.36 210.64 438.04 215.46 444.75 220.49 451.45 225.52 458.16 230.13 464.87 234.4 471.54 238.22 478.22 241.27 484.86 243.76 491.43 245.73 497.99 246.91 504.47 247.69 510.84 248.17 517.17 248.13 523.35 248.04 529.36 248.03 538.17 247.95 554.42 249.98 561.69 252.54 568.38 256.23 579.45 267.33 583.68 274.56 586.11 279.87 588.03 285.61 589.42 291.69 590.59 298 591.22 304.57 591.31 311.31 591.2 318.19 590.58 325.17 589.46 332.17 588.2 339.26 586.5 346.32 584.38 353.31 582.23 360.33 579.73 367.25 576.94 374.01 574.24 380.79 571.33 387.4 568.26 393.79 565.42 400.19 562.56 406.21 559.73 411.85 555.98 420.11 549.35 434.74 546.49 441.17 544.17 447.34 540.1 458.62 538.2 464.04 536.52 469.85 532.69 482.83 530.39 490.48 528.84 496.29 527.03 502.61 524.94 509.47 522.86 516.91 520.47 524.87 517.77 533.27 515.05 542.04 511.99 551.03 508.61 560.04 505.19 568.93 501.44 577.44 497.37 585.29 493.25 592.37 488.82 598.33 484.09 602.92 476.79 607.02 460.79 604.68 452.14 598.55 446.27 593.17 440.19 586.92 433.89 580.15 427.59 573.68 421.1 567.52 414.42 562.06 407.74 558.01 401.05 555.32 394.36 554.07 387.68 554.54 381.01 556.32 374.38 559.2 367.74 563.27 361.15 567.87 354.6 572.64 348.06 577.65 341.58 582.17 335.16 585.91 328.76 589.03 322.44 590.93 316.21 591.5 309.99 591.01 303.87 589.09 297.88 585.83 291.91 581.52 286.08 576.06 280.39 569.62 274.75 562.47 269.27 554.66 263.98 546.39 258.74 537.82 253.72 529.06 248.92 520.28 244.2 511.53 239.73 502.92 235.53 494.54 231.43 486.36 227.62 478.47 224.13 470.87 220.75 463.51 217.71 456.42 215.03 449.57 212.48 442.93 210.29 436.45 208.5 430.12 206.84 423.92 205.58 417.78 204.74 411.67 204.02 405.63 203.72 399.56 203.84 393.46 204.08 387.37 204.74 381.22 205.83 375.01 207 368.8 208.56 362.67 210.46 356.65 212.41 350.65 214.69 344.78 217.25 339.08 219.83 333.43 222.68 328 225.77 322.83 230.48 315.36 240.86 302.33 246.46 296.91 252.12 292.1 264.05 284.71 270.31 281.98 276.56 279.43 289.61 274.7 296.41 272.01 303.23 268.37 317.49 258.44 324.94 251.93 329.91 246.84 335.04 241.4 340.33 235.71 345.58 229.72 351 223.74 356.58 217.97 362.14 212.39 367.88 207.38 373.8 203.15 379.7 199.62 385.78 197.17 392.04 195.95 398.3 195.69 404.75 196.71 411.38 198.98" stroke-dasharray="4 1" transform="rotate(36.36, 400, 400)" opacity="0.13"></path><path d="M414.84 209.66C421.13 212.59 427.44 216.36 433.75 220.76 440.06 225.36 446.37 230.22 452.67 235.13 465.26 243.84 477.75 251.19 489.93 256.69 502.04 259.35 513.71 260.68 524.67 261.47 535.35 261.23 545.1 262.04 553.61 264.49 561.57 267.74 568.03 273.21 572.75 280.7 576.71 289.3 578.81 299.52 578.96 310.83 578.47 322.74 576.23 335.19 572.37 347.7 570.4 354.02 568.12 360.29 565.57 366.48 563.1 372.68 560.44 378.76 557.6 384.7 554.97 390.64 552.3 396.27 549.63 401.61 547.23 406.95 544.86 411.99 542.53 416.75 538.78 426.34 535.19 435.03 531.72 443.11 529.24 451.84 526.56 460.71 523.51 470.28 520.97 481.42 517.7 494.04 513.55 508.32 509.5 524.14 504.34 540.92 498.06 557.53 491.68 572.9 484.11 585.37 475.43 593.16 466.63 596.31 456.76 593.54 445.96 585.27 440.54 580.11 434.89 574.25 429.05 567.99 423.19 562.07 417.14 556.42 410.91 551.38 404.67 547.58 398.41 544.93 392.14 543.52 385.88 543.62 379.62 544.87 373.38 547.11 360.92 554.75 348.56 563.47 336.46 571.02 324.42 577.12 312.67 578.89 301.38 575.95 290.21 569.4 279.56 558.77 269.64 545.32 259.94 530.19 251.06 514.07 243.22 497.96 235.73 482.03 229.39 466.83 224.38 452.57 219.84 438.84 216.7 425.81 215.12 413.36 214.51 407.22 214.29 401.16 214.46 395.17 214.74 389.2 215.42 383.27 216.49 377.4 218.4 368.69 223.98 352.28 227.55 344.66 232.51 334.73 238.48 325.94 245.24 318.52 251.83 311.34 259.13 305.6 267 301.26 274.58 296.78 282.72 293.13 291.34 289.85 299.66 285.21 308.52 279.85 317.86 273.28 326.97 264.45 336.65 254.26 346.88 243.22 356.97 231.49 367.7 220.82 379.03 212.66 384.67 209.55 390.48 207.45 396.45 206.47 402.41 206.38 408.54 207.45 414.83 209.66" stroke-dasharray="10 0" transform="rotate(40.400000000000006, 400, 400)" opacity="0.79"></path><path d="M417.76 220.34C429.63 226.45 441.51 235.03 453.25 244.63 464.99 253.31 476.54 261.01 487.73 267.19 498.82 270.83 509.42 273.14 519.28 274.68 528.88 274.9 537.54 275.65 545.01 277.49 551.99 279.63 557.58 283.55 561.56 289.24 564.93 295.74 566.62 303.86 566.57 313.18 566.04 323.04 563.94 333.69 560.4 344.69 556.85 355.86 552.3 367.1 546.94 378.11 542.28 389.13 537.47 399.37 532.73 408.88 528.99 418.52 525.31 427.74 521.7 436.81 518.95 446.54 516 456.75 512.74 467.81 509.98 480.11 506.58 493.67 502.45 508.37 498.47 523.84 493.53 539.52 487.62 554.27 481.66 567.31 474.64 577.21 466.63 582.62 458.52 583.98 449.43 580.25 439.46 571.95 429.44 561.99 418.58 550.83 407 540.7 395.42 534.82 383.71 533.08 372.04 535.23 360.41 541.47 348.85 549.01 337.54 556.02 326.29 562.39 315.31 565.41 304.79 564.54 294.38 560.7 284.49 553.03 275.3 542.42 266.34 529.92 258.16 515.88 250.96 501.27 244.1 486.36 238.32 471.7 233.79 457.68 229.69 443.93 226.89 430.85 225.54 418.49 224.62 406.29 225.12 394.6 227.15 383.49 229.47 372.38 233.09 362.32 237.79 353.39 242.56 344.49 248.27 336.79 254.75 330.38 261.11 323.98 268.14 318.77 275.73 314.57 283.08 309.91 290.97 305.67 299.31 301.4 307.4 295.69 315.99 289.14 325.01 281.46 333.84 271.92 343.19 261.39 353.02 250.47 362.73 239.33 373 229.51 383.8 222.24 394.54 217.52 405.88 216.79 417.75 220.33" stroke-dasharray="9 3" transform="rotate(44.44, 400, 400)" opacity="0.95"></path><path d="M420.04 231.02C431.19 236.79 442.26 244.86 453.13 254.02 463.98 262.57 474.59 270.48 484.78 277.19 494.87 281.72 504.42 285.01 513.22 287.42 521.77 288.36 529.42 289.43 535.92 291.13 544.41 294.14 553.69 307.95 554.19 318.67 553.63 326.64 551.7 335.57 548.48 345.12 545.29 354.8 541.17 364.87 536.28 375.11 531.99 385.34 527.48 395.25 522.95 404.86 519.26 414.63 515.56 424.39 511.85 434.34 508.9 444.86 505.75 456.03 502.31 468.02 499.35 480.86 495.84 494.61 491.71 508.94 487.76 523.39 483 537.43 477.4 549.99 471.79 560.6 465.26 568.03 457.84 571.32 450.36 571.19 441.99 566.77 432.79 558.64 423.56 549.39 413.55 539.26 402.84 530.02 392.14 524.45 381.29 522.34 370.48 523.56 359.69 528.48 348.97 534.79 338.47 541.04 328.05 547.29 317.89 551.08 308.16 551.76 298.56 550.18 289.45 545.17 281.01 537.31 272.79 527.59 265.32 516.01 258.78 503.41 252.55 490.18 247.32 476.74 243.27 463.59 239.59 450.46 237.12 437.83 236 425.89 235.25 414.03 235.83 402.79 237.81 392.28 240.07 381.77 243.52 372.44 248 364.27 252.54 356.08 257.99 349.03 264.16 343.1 270.25 337 276.99 331.79 284.26 327.24 291.34 322.04 298.94 316.93 306.97 311.54 314.79 304.77 323.07 297.17 331.76 288.62 340.28 278.66 349.26 268.1 358.67 257.54 367.97 247.15 377.76 238.26 388 231.9 398.2 227.9 408.9 227.54 420.04 231.02" stroke-dasharray="3 1" transform="rotate(48.48, 400, 400)" opacity="0.36"></path><path d="M421.61 241.7C431.99 247.11 442.24 254.66 452.22 263.32 462.19 271.63 471.85 279.6 481.05 286.69 490.15 291.97 498.69 296.17 506.48 299.48 517.4 302.16 533.71 307.63 538.57 312.35 540.98 316.05 542.07 321.03 541.8 327.18 541.26 333.59 539.5 341.03 536.6 349.3 533.76 357.65 530.06 366.65 525.62 376.17 521.69 385.69 517.49 395.29 513.19 404.96 509.6 414.76 505.91 424.88 502.17 435.38 499.08 446.31 495.78 457.91 492.22 470.16 489.08 482.86 485.49 496.07 481.37 509.33 477.44 522.24 472.82 534.25 467.48 544.45 462.18 552.67 456.07 557.83 449.19 559.3 442.27 558 434.56 553.15 426.11 545.33 417.62 536.85 408.42 527.71 398.58 519.34 388.75 514.1 378.77 511.7 368.82 512.11 358.9 515.79 349.03 520.86 339.38 526.19 329.81 532 320.48 536.1 311.57 537.83 302.79 537.96 294.49 535.2 286.82 529.82 279.35 522.8 272.59 513.79 266.7 503.48 261.09 492.37 256.41 480.66 252.81 468.88 249.55 456.93 247.41 445.22 246.49 434.03 245.9 422.86 246.54 412.24 248.47 402.34 250.64 392.43 253.93 383.65 258.16 375.96 262.47 368.2 267.62 361.42 273.47 355.52 279.25 349.34 285.67 343.76 292.59 338.53 299.37 332.58 306.64 326.5 314.31 320.03 321.82 312.35 329.77 303.95 338.07 294.86 346.24 284.78 354.82 274.47 363.76 264.51 372.63 255 381.91 247.1 391.57 241.63 401.19 238.34 411.23 238.31 421.61 241.7" stroke-dasharray="6 4" transform="rotate(52.52, 400, 400)" opacity="0.70"></path><path d="M422.4 252.38C432 257.42 441.41 264.42 450.5 272.53 459.58 280.5 468.3 288.38 476.54 295.67 484.69 301.53 492.26 306.51 499.11 310.68 508.67 314.7 522.74 321.4 526.84 325.76 529.31 330.92 528.15 346.58 524.78 356.94 522.26 364.19 518.96 372.28 514.96 381.13 511.39 389.99 507.5 399.23 503.45 408.78 499.99 418.44 496.37 428.58 492.66 439.18 489.48 450.03 486.09 461.44 482.46 473.26 479.21 485.19 475.56 497.23 471.46 508.9 467.55 519.89 463.06 529.67 457.97 537.5 452.93 543.48 447.21 546.66 440.82 546.65 434.41 544.48 427.31 539.44 419.56 532.06 411.78 524.36 403.37 516.2 394.38 508.66 385.39 503.76 376.28 501.16 367.19 500.87 358.14 503.42 349.15 507.29 340.36 511.61 331.65 516.73 323.18 520.73 315.11 523.02 307.16 524.32 299.66 523.28 292.76 519.98 286.04 515.36 279.99 508.8 274.74 500.8 269.74 491.99 265.6 482.31 262.45 472.22 259.58 461.86 257.74 451.44 257.02 441.29 256.59 431.1 257.27 421.28 259.13 412.01 261.21 402.73 264.31 394.39 268.28 386.95 272.33 379.42 277.17 372.63 282.66 366.47 288.12 359.99 294.18 353.84 300.71 347.81 307.15 341.1 314.05 334.13 321.33 326.76 328.48 318.44 336.04 309.57 343.91 300.28 351.69 290.42 359.83 280.62 368.27 271.45 376.66 262.93 385.4 256.05 394.44 251.47 403.45 248.83 412.8 249.09 422.4 252.38" stroke-dasharray="9 8" transform="rotate(56.56, 400, 400)" opacity="0.79"></path><path d="M422.39 263.05C431.19 267.72 439.74 274.14 447.96 281.66 456.15 289.19 463.96 296.84 471.27 304.16 478.5 310.4 485.16 315.98 491.13 320.88 499.46 326.23 511.54 334.8 514.98 339.38 517.07 344.21 515.98 358.03 513 367.21 510.8 373.64 507.88 380.97 504.3 389.18 501.07 397.4 497.5 406.16 493.73 415.35 490.43 424.6 486.93 434.38 483.29 444.56 480.1 454.84 476.69 465.49 473.04 476.27 469.72 486.9 466.05 497.32 462 507.04 458.14 515.93 453.78 523.46 448.93 529.07 444.14 533.04 438.77 534.58 432.83 533.43 426.91 530.68 420.38 525.66 413.29 518.83 406.19 511.94 398.53 504.71 390.37 497.98 382.21 493.44 373.96 490.71 365.74 489.84 357.55 491.38 349.44 494.11 341.52 497.39 333.67 501.63 326.06 505.22 318.83 507.65 311.71 509.58 305.02 509.71 298.88 508 292.91 505.32 287.55 500.9 282.92 495.04 278.52 488.46 274.9 480.85 272.17 472.58 269.69 464.01 268.14 455.11 267.6 446.18 267.3 437.19 268.01 428.31 269.79 419.71 271.76 411.11 274.66 403.17 278.36 395.87 282.14 388.48 286.65 381.56 291.76 375.02 296.86 368.18 302.53 361.44 308.65 354.68 314.7 347.35 321.18 339.74 328.02 331.78 334.77 323.16 341.89 314.19 349.29 305.06 356.62 295.71 364.27 286.67 372.18 278.45 380.05 271 388.2 265.15 396.59 261.42 404.96 259.39 413.59 259.9 422.39 263.05" stroke-dasharray="6 8" transform="rotate(60.599999999999994, 400, 400)" opacity="0.13"></path><path d="M421.57 273.73C429.56 278 437.26 283.85 444.61 290.72 451.93 297.73 458.86 305.01 465.29 312.18 471.65 318.58 477.46 324.54 482.63 329.99 489.83 336.5 500.15 347.18 503.06 352.34 504.83 357.4 503.86 370.46 501.28 378.87 499.38 384.72 496.81 391.43 493.64 399.01 490.75 406.59 487.5 414.73 484.02 423.29 480.91 431.87 477.58 440.89 474.07 450.19 470.92 459.45 467.55 468.87 463.95 478.16 460.63 487.15 456.99 495.67 453.03 503.3 447.14 512.81 433.36 521.56 425.36 519.74 419.88 516.68 413.9 511.86 407.45 505.67 400.99 499.6 394.06 493.26 386.71 487.31 379.35 483.13 371.94 480.34 364.59 479.02 357.26 479.7 350.01 481.38 342.96 483.64 335.97 486.9 329.21 489.85 322.81 492.05 313.56 494.54 297.63 491.64 291.27 486.19 287.44 481.57 284.32 475.86 281.99 469.36 279.88 462.57 278.59 455.24 278.21 447.61 278.03 439.91 278.76 432.06 280.45 424.19 282.3 416.32 284.99 408.8 288.4 401.64 291.89 394.4 296.05 387.38 300.76 380.52 305.48 373.41 310.72 366.27 316.39 359.01 322.01 351.35 328.04 343.42 334.4 335.26 340.69 326.72 347.32 318.03 354.21 309.42 361.04 300.84 368.15 292.76 375.48 285.6 382.77 279.25 390.31 274.41 398.01 271.49 405.7 270.02 413.58 270.74 421.57 273.73" stroke-dasharray="6 6" transform="rotate(64.64, 400, 400)" opacity="0.18"></path><path d="M419.98 284.41C427.14 288.28 434 293.53 440.5 299.72 446.97 306.13 453.05 312.92 458.65 319.76 464.19 326.1 469.22 332.21 473.65 337.97 479.84 345.35 488.64 357.97 491.09 363.86 492.61 369.45 491.81 382.5 489.61 390.43 487.98 395.88 485.77 402.06 482.98 408.99 480.42 415.92 477.5 423.29 474.32 430.97 471.44 438.65 468.3 446.61 464.98 454.66 461.94 462.61 458.66 470.49 455.17 478.04 451.91 485.23 448.36 491.79 444.55 497.39 438.86 504.03 425.86 508.43 418.46 505.68 413.42 502.54 407.97 498.08 402.14 492.58 396.31 487.32 390.09 481.85 383.52 476.63 376.96 472.83 370.37 470.07 363.86 468.4 357.37 468.35 350.97 469.12 344.78 470.41 335.67 473.75 319.06 478.92 311.83 479.32 305.27 478.13 295.2 469.47 291.93 462.45 290.15 457.26 289.11 451.4 288.87 445.03 288.8 438.6 289.52 431.79 291.11 424.7 292.83 417.62 295.29 410.59 298.41 403.67 301.59 396.7 305.38 389.73 309.67 382.76 313.98 375.63 318.77 368.36 323.95 360.96 329.11 353.31 334.64 345.48 340.47 337.54 346.27 329.45 352.36 321.39 358.68 313.58 364.96 305.99 371.49 299.01 378.19 292.98 384.87 287.74 391.74 283.87 398.72 281.68 405.71 280.71 412.82 281.6 419.98 284.41" stroke-dasharray="1 4" transform="rotate(68.68, 400, 400)" opacity="0.62"></path><path d="M417.67 295.09C430.34 302.69 441.76 314.14 451.45 326.96 460.97 338.69 468.54 349.9 473.68 360.15 478.5 368.48 480.84 376.92 480.47 386.09 480.04 394.64 477.29 405.02 472.32 417.5 468.03 429.97 462.41 443.45 456.01 456.8 450.46 469.61 443.92 481.04 436.55 489.21 429.65 495.01 421.5 495.94 412.23 491.36 403.06 485.13 392.53 475.86 380.93 465.95 369.33 460.42 357.82 457.89 347.05 457.8 336.43 461.13 326.77 463.65 318.74 463.76 311.08 463.56 305.3 459.62 301.97 452.26 299.18 444.31 298.97 433.71 301.77 421.18 305.01 408.64 310.83 395.44 318.5 381.98 326.27 368.18 335.74 353.63 346.26 339.04 356.73 324.52 368.27 311.06 380.33 300.68 392.37 293.1 405.01 290.85 417.67 295.09" stroke-dasharray="3 7" transform="rotate(72.72, 400, 400)" opacity="0.53"></path><path d="M414.73 305.77C425.74 312.4 435.55 322.4 443.77 333.85 451.88 344.85 458.27 355.86 462.57 366.24 466.67 375.32 468.67 384.34 468.41 393.58 468.14 402.31 465.89 412.14 461.66 423.14 457.95 434.14 452.94 445.32 447.14 455.74 441.97 465.64 435.85 473.77 429.02 478.82 422.55 482.19 415.05 481.62 406.7 476.89 398.43 471.39 389.12 463.64 379.02 455.27 368.92 450.22 359.02 447.15 349.87 445.83 340.82 447.36 332.67 448.56 325.98 448.23 319.57 448.17 314.79 445.34 312.14 439.64 309.89 433.64 309.87 425.04 312.43 414.18 315.34 403.32 320.48 391.34 327.24 378.86 334.12 366.29 342.49 353.12 351.8 340.27 361.11 327.9 371.34 316.86 381.99 308.76 392.63 303.05 403.73 301.77 414.73 305.77" stroke-dasharray="10 1" transform="rotate(76.76, 400, 400)" opacity="0.55"></path><path d="M411.26 316.45C420.62 322.11 428.88 330.6 435.75 340.5 442.54 350.37 447.85 360.62 451.42 370.56 454.87 379.73 456.59 388.82 456.44 397.8 456.32 406.44 454.52 415.53 451 424.99 447.85 434.44 443.5 443.36 438.38 451.07 433.69 458.38 428.13 463.79 421.95 466.5 416.04 468.18 409.29 466.8 401.9 462.4 394.59 457.79 386.49 451.5 377.86 444.59 369.23 440.09 360.89 436.75 353.27 434.55 342.36 434.49 326.4 431.67 322.44 425.79 320.68 421.06 320.79 414.04 323.09 404.86 325.65 395.68 330.09 385.29 335.92 374.4 341.86 363.57 349.09 352.39 357.12 341.77 365.19 331.81 374.03 323.24 383.2 317.31 392.39 313.25 401.9 312.76 411.26 316.45" stroke-dasharray="3 10" transform="rotate(80.80000000000001, 400, 400)" opacity="0.65"></path><path d="M407.39 327.13C415.12 331.82 421.89 338.78 427.49 347 433.04 355.41 437.37 364.42 440.29 373.35 443.15 381.93 444.62 390.47 444.57 398.73 444.57 406.8 443.19 414.9 440.34 422.75 437.75 430.6 434.08 437.44 429.69 442.88 423.15 449.76 407.13 452.52 397.83 447.98 391.54 444.35 384.68 439.45 377.5 433.91 370.31 430.03 363.48 426.67 357.31 423.95 348.5 422.18 335.87 417.32 332.87 412.04 331.55 408.04 331.76 402.28 333.75 394.75 335.93 387.21 339.66 378.68 344.53 369.8 349.5 361.06 355.55 352.22 362.27 344.08 369.03 336.57 376.43 330.38 384.08 326.37 391.75 323.73 399.66 323.84 407.39 327.13" stroke-dasharray="9 1" transform="rotate(84.84, 400, 400)" opacity="0.58"></path><path d="M403.25 337.8C415.5 345.98 424.58 360.08 429.25 374.99 433.84 389.54 434.23 404.33 429.68 416.79 425.77 429.24 418.2 436.76 409.05 437.81 400.35 438.12 389.45 432.57 377.94 423.23 366.42 418.03 356.43 413.03 349.87 407.84 343.62 404.57 341.23 397.38 344.4 385.49 348.08 373.6 356.58 359.51 367.28 347.68 378.12 337.76 391 333.25 403.25 337.8" stroke-dasharray="10 6" transform="rotate(88.88, 400, 400)" opacity="0.39"></path><path d="M399 348.48C408.08 354.46 414.83 364.77 418.35 375.96 421.86 387.28 422.3 398.85 419.02 408.07 416.09 417.29 410.25 422.26 403.14 422.58 396.28 422.84 387.83 419.15 379.17 412.55 370.51 408.26 363.23 403.22 358.6 397.9 354.13 393.81 352.56 387.43 355.06 378.61 357.86 369.79 364.23 360.28 372.21 352.95 380.3 346.8 389.9 344.59 399 348.48" stroke-dasharray="8 0" transform="rotate(92.92, 400, 400)" opacity="0.64"></path><path d="M394.78 359.16C406.78 367.63 412.69 385.91 408.36 398.04 404.63 410.15 392.75 410.92 381.15 401.88 369.54 396.83 362.37 386.93 365.72 375.23 369.62 363.52 382.77 354.44 394.78 359.16" stroke-dasharray="2 4" transform="rotate(96.96, 400, 400)" opacity="0.20"></path></g></svg>