<svg xmlns="http://www.w3.org/2000/svg" version="1.1" xmlns:xlink="http://www.w3.org/1999/xlink" xmlns:svgjs="http://svgjs.dev/svgjs" viewBox="0 0 800 800"><defs><linearGradient x1="50%" y1="0%" x2="50%" y2="100%" id="ffflurry-grad" gradientTransform="rotate(270)"><stop stop-color="hsl(238, 82%, 13%)" stop-opacity="1" offset="0%"></stop><stop stop-color="hsl(162, 100%, 58%)" stop-opacity="1" offset="45%"></stop><stop stop-color="hsl(270, 73%, 53%)" stop-opacity="1" offset="100%"></stop></linearGradient></defs><rect width="100%" height="100%" fill="hsl(238, 82%, 13%)"></rect><g fill="url(#ffflurry-grad)"><rect width="617" height="3" x="444.5" y="545.5" rx="1.5" transform="rotate(45, 753, 547)" opacity="0.35"></rect><rect width="493" height="3" x="63.5" y="459.5" rx="1.5" transform="rotate(45, 310, 461)" opacity="0.33"></rect><rect width="370" height="3" x="569" y="420.5" rx="1.5" transform="rotate(45, 754, 422)" opacity="0.37"></rect><rect width="496" height="3" x="70" y="536.5" rx="1.5" transform="rotate(45, 318, 538)" opacity="0.36"></rect><rect width="97" height="3" x="511.5" y="414.5" rx="1.5" transform="rotate(45, 560, 416)" opacity="0.87"></rect><rect width="628" height="3" x="78" y="415.5" rx="1.5" transform="rotate(45, 392, 417)" opacity="0.44"></rect><rect width="511" height="3" x="452.5" y="37.5" rx="1.5" transform="rotate(45, 708, 39)" opacity="0.45"></rect><rect width="709" height="3" x="-304.5" y="514.5" rx="1.5" transform="rotate(45, 50, 516)" opacity="0.38"></rect><rect width="173" height="3" x="47.5" y="95.5" rx="1.5" transform="rotate(45, 134, 97)" opacity="0.87"></rect><rect width="381" height="3" x="528.5" y="715.5" rx="1.5" transform="rotate(45, 719, 717)" opacity="0.87"></rect><rect width="122" height="3" x="95" y="298.5" rx="1.5" transform="rotate(45, 156, 300)" opacity="0.50"></rect><rect width="458" height="3" x="106" y="345.5" rx="1.5" transform="rotate(45, 335, 347)" opacity="0.17"></rect><rect width="554" height="3" x="466" y="135.5" rx="1.5" transform="rotate(45, 743, 137)" opacity="0.24"></rect><rect width="518" height="3" x="217" y="352.5" rx="1.5" transform="rotate(45, 476, 354)" opacity="0.33"></rect><rect width="566" height="3" x="377" y="619.5" rx="1.5" transform="rotate(45, 660, 621)" opacity="0.14"></rect><rect width="138" height="3" x="615" y="285.5" rx="1.5" transform="rotate(45, 684, 287)" opacity="0.39"></rect><rect width="346" height="3" x="-33" y="758.5" rx="1.5" transform="rotate(45, 140, 760)" opacity="0.66"></rect><rect width="232" height="3" x="149" y="29.5" rx="1.5" transform="rotate(45, 265, 31)" opacity="0.39"></rect><rect width="257" height="3" x="108.5" y="770.5" rx="1.5" transform="rotate(45, 237, 772)" opacity="0.37"></rect><rect width="51" height="3" x="17.5" y="432.5" rx="1.5" transform="rotate(45, 43, 434)" opacity="0.27"></rect><rect width="174" height="3" x="91" y="673.5" rx="1.5" transform="rotate(45, 178, 675)" opacity="0.07"></rect><rect width="48" height="3" x="174" y="69.5" rx="1.5" transform="rotate(45, 198, 71)" opacity="0.80"></rect><rect width="233" height="3" x="-37.5" y="27.5" rx="1.5" transform="rotate(45, 79, 29)" opacity="0.84"></rect><rect width="264" height="3" x="628" y="763.5" rx="1.5" transform="rotate(45, 760, 765)" opacity="0.35"></rect><rect width="276" height="3" x="481" y="342.5" rx="1.5" transform="rotate(45, 619, 344)" opacity="0.51"></rect><rect width="115" height="3" x="-31.5" y="292.5" rx="1.5" transform="rotate(45, 26, 294)" opacity="0.12"></rect><rect width="39" height="3" x="111.5" y="606.5" rx="1.5" transform="rotate(45, 131, 608)" opacity="0.19"></rect><rect width="367" height="3" x="24.5" y="256.5" rx="1.5" transform="rotate(45, 208, 258)" opacity="0.20"></rect><rect width="143" height="3" x="512.5" y="280.5" rx="1.5" transform="rotate(45, 584, 282)" opacity="0.56"></rect><rect width="41" height="3" x="150.5" y="368.5" rx="1.5" transform="rotate(45, 171, 370)" opacity="0.75"></rect><rect width="215" height="3" x="136.5" y="410.5" rx="1.5" transform="rotate(45, 244, 412)" opacity="0.75"></rect><rect width="697" height="3" x="308.5" y="426.5" rx="1.5" transform="rotate(45, 657, 428)" opacity="0.22"></rect><rect width="131" height="3" x="278.5" y="614.5" rx="1.5" transform="rotate(45, 344, 616)" opacity="0.50"></rect><rect width="153" height="3" x="337.5" y="295.5" rx="1.5" transform="rotate(45, 414, 297)" opacity="0.38"></rect><rect width="407" height="3" x="116.5" y="255.5" rx="1.5" transform="rotate(45, 320, 257)" opacity="0.11"></rect><rect width="334" height="3" x="316" y="434.5" rx="1.5" transform="rotate(45, 483, 436)" opacity="0.85"></rect><rect width="308" height="3" x="-55" y="335.5" rx="1.5" transform="rotate(45, 99, 337)" opacity="0.24"></rect><rect width="70" height="3" x="346" y="741.5" rx="1.5" transform="rotate(45, 381, 743)" opacity="0.73"></rect><rect width="180" height="3" x="210" y="185.5" rx="1.5" transform="rotate(45, 300, 187)" opacity="0.70"></rect><rect width="65" height="3" x="16.5" y="371.5" rx="1.5" transform="rotate(45, 49, 373)" opacity="0.15"></rect><rect width="588" height="3" x="465" y="292.5" rx="1.5" transform="rotate(45, 759, 294)" opacity="0.90"></rect><rect width="149" height="3" x="449.5" y="167.5" rx="1.5" transform="rotate(45, 524, 169)" opacity="0.32"></rect><rect width="384" height="3" x="327" y="749.5" rx="1.5" transform="rotate(45, 519, 751)" opacity="0.75"></rect><rect width="126" height="3" x="53" y="204.5" rx="1.5" transform="rotate(45, 116, 206)" opacity="0.85"></rect><rect width="111" height="3" x="-14.5" y="185.5" rx="1.5" transform="rotate(45, 41, 187)" opacity="0.71"></rect><rect width="272" height="3" x="-49" y="682.5" rx="1.5" transform="rotate(45, 87, 684)" opacity="0.92"></rect><rect width="60" height="3" x="443" y="102.5" rx="1.5" transform="rotate(45, 473, 104)" opacity="0.76"></rect><rect width="97" height="3" x="504.5" y="355.5" rx="1.5" transform="rotate(45, 553, 357)" opacity="0.63"></rect><rect width="179" height="3" x="81.5" y="176.5" rx="1.5" transform="rotate(45, 171, 178)" opacity="0.58"></rect><rect width="52" height="3" x="355" y="172.5" rx="1.5" transform="rotate(45, 381, 174)" opacity="0.53"></rect><rect width="56" height="3" x="456" y="637.5" rx="1.5" transform="rotate(45, 484, 639)" opacity="0.08"></rect><rect width="220" height="3" x="42" y="546.5" rx="1.5" transform="rotate(45, 152, 548)" opacity="0.69"></rect><rect width="800" height="3" x="183" y="68.5" rx="1.5" transform="rotate(45, 583, 70)" opacity="0.14"></rect><rect width="179" height="3" x="-48.5" y="96.5" rx="1.5" transform="rotate(45, 41, 98)" opacity="0.89"></rect><rect width="433" height="3" x="209.5" y="33.5" rx="1.5" transform="rotate(45, 426, 35)" opacity="0.95"></rect><rect width="252" height="3" x="138" y="712.5" rx="1.5" transform="rotate(45, 264, 714)" opacity="0.36"></rect><rect width="424" height="3" x="303" y="269.5" rx="1.5" transform="rotate(45, 515, 271)" opacity="0.65"></rect><rect width="498" height="3" x="-206" y="750.5" rx="1.5" transform="rotate(45, 43, 752)" opacity="0.72"></rect><rect width="74" height="3" x="179" y="510.5" rx="1.5" transform="rotate(45, 216, 512)" opacity="1.00"></rect><rect width="346" height="3" x="237" y="612.5" rx="1.5" transform="rotate(45, 410, 614)" opacity="0.81"></rect><rect width="197" height="3" x="135.5" y="187.5" rx="1.5" transform="rotate(45, 234, 189)" opacity="0.39"></rect><rect width="601" height="3" x="353.5" y="195.5" rx="1.5" transform="rotate(45, 654, 197)" opacity="0.45"></rect><rect width="516" height="3" x="-121" y="442.5" rx="1.5" transform="rotate(45, 137, 444)" opacity="0.19"></rect><rect width="580" height="3" x="283" y="634.5" rx="1.5" transform="rotate(45, 573, 636)" opacity="0.95"></rect><rect width="114" height="3" x="215" y="633.5" rx="1.5" transform="rotate(45, 272, 635)" opacity="0.55"></rect><rect width="480" height="3" x="24" y="120.5" rx="1.5" transform="rotate(45, 264, 122)" opacity="0.96"></rect><rect width="77" height="3" x="634.5" y="517.5" rx="1.5" transform="rotate(45, 673, 519)" opacity="0.09"></rect><rect width="303" height="3" x="485.5" y="743.5" rx="1.5" transform="rotate(45, 637, 745)" opacity="0.44"></rect><rect width="240" height="3" x="223" y="83.5" rx="1.5" transform="rotate(45, 343, 85)" opacity="0.60"></rect><rect width="456" height="3" x="532" y="641.5" rx="1.5" transform="rotate(45, 760, 643)" opacity="0.85"></rect><rect width="49" height="3" x="423.5" y="514.5" rx="1.5" transform="rotate(45, 448, 516)" opacity="0.18"></rect><rect width="146" height="3" x="180" y="321.5" rx="1.5" transform="rotate(45, 253, 323)" opacity="0.48"></rect><rect width="299" height="3" x="430.5" y="200.5" rx="1.5" transform="rotate(45, 580, 202)" opacity="0.21"></rect><rect width="244" height="3" x="-39" y="262.5" rx="1.5" transform="rotate(45, 83, 264)" opacity="0.22"></rect><rect width="166" height="3" x="-47" y="618.5" rx="1.5" transform="rotate(45, 36, 620)" opacity="0.77"></rect><rect width="554" height="3" x="174" y="217.5" rx="1.5" transform="rotate(45, 451, 219)" opacity="0.07"></rect><rect width="412" height="3" x="360" y="508.5" rx="1.5" transform="rotate(45, 566, 510)" opacity="0.35"></rect></g></svg>