<svg xmlns="http://www.w3.org/2000/svg" version="1.1" xmlns:xlink="http://www.w3.org/1999/xlink" xmlns:svgjs="http://svgjs.dev/svgjs" viewBox="0 0 800 800" opacity="0.84"><defs><linearGradient x1="50%" y1="0%" x2="50%" y2="100%" id="gggyrate-grad"><stop stop-color="hsl(184, 74%, 44%)" stop-opacity="1" offset="0%"></stop><stop stop-color="hsl(332, 87%, 70%)" stop-opacity="1" offset="100%"></stop></linearGradient></defs><g stroke-width="5.5" stroke="url(#gggyrate-grad)" fill="none"><polygon points="400,187.375 116.5,612.625 683.5,612.625" transform="rotate(42, 400, 400)" opacity="0.05"></polygon><polygon points="400,197.5 130,602.5 670,602.5" transform="rotate(40, 400, 400)" opacity="0.10"></polygon><polygon points="400,207.625 143.5,592.375 656.5,592.375" transform="rotate(38, 400, 400)" opacity="0.15"></polygon><polygon points="400,217.75 157,582.25 643,582.25" transform="rotate(36, 400, 400)" opacity="0.19"></polygon><polygon points="400,227.875 170.5,572.125 629.5,572.125" transform="rotate(34, 400, 400)" opacity="0.24"></polygon><polygon points="400,238 184,562 616,562" transform="rotate(32, 400, 400)" opacity="0.29"></polygon><polygon points="400,248.125 197.5,551.875 602.5,551.875" transform="rotate(30, 400, 400)" opacity="0.33"></polygon><polygon points="400,258.25 211,541.75 589,541.75" transform="rotate(28, 400, 400)" opacity="0.38"></polygon><polygon points="400,268.375 224.5,531.625 575.5,531.625" transform="rotate(26, 400, 400)" opacity="0.43"></polygon><polygon points="400,278.5 238,521.5 562,521.5" transform="rotate(24, 400, 400)" opacity="0.48"></polygon><polygon points="400,288.625 251.5,511.375 548.5,511.375" transform="rotate(22, 400, 400)" opacity="0.53"></polygon><polygon points="400,298.75 265,501.25 535,501.25" transform="rotate(20, 400, 400)" opacity="0.57"></polygon><polygon points="400,308.875 278.5,491.125 521.5,491.125" transform="rotate(18, 400, 400)" opacity="0.62"></polygon><polygon points="400,319 292,481 508,481" transform="rotate(16, 400, 400)" opacity="0.67"></polygon><polygon points="400,329.125 305.5,470.875 494.5,470.875" transform="rotate(14, 400, 400)" opacity="0.71"></polygon><polygon points="400,339.25 319,460.75 481,460.75" transform="rotate(12, 400, 400)" opacity="0.76"></polygon><polygon points="400,349.375 332.5,450.625 467.5,450.625" transform="rotate(10, 400, 400)" opacity="0.81"></polygon><polygon points="400,359.5 346,440.5 454,440.5" transform="rotate(8, 400, 400)" opacity="0.86"></polygon><polygon points="400,369.625 359.5,430.375 440.5,430.375" transform="rotate(6, 400, 400)" opacity="0.91"></polygon><polygon points="400,379.75 373,420.25 427,420.25" transform="rotate(4, 400, 400)" opacity="0.95"></polygon><polygon points="400,389.875 386.5,410.125 413.5,410.125" transform="rotate(2, 400, 400)" opacity="1.00"></polygon></g></svg>